<?xml version="1.0" encoding="UTF-8"?>
<svg id="a" data-name="Layer 1" xmlns="http://www.w3.org/2000/svg" viewBox="0 0 267.97 45">
  <defs>
    <style>
      .b {
        fill: #242424;
      }
    </style>
  </defs>
  <path class="b" d="M89.76,20.56v2.65c-1.14.1-2.25.36-3.32.25-3.2-.32-6.38-.9-9.58-1.15-1.35-.11-2.74.34-4.1.53-.3.92-.52,1.61-.74,2.27-2.52-.06-2.8-.43-2.94-3.74-2.52-.43-4.6.21-6.06,2.43-.72,1.09-.73,1.15.06,2.7.55-.31,1.09-.61,1.62-.91,1.11,1.55.96,2.38-.5,3.16-2.58,1.38-5.85-.3-6.54-3.38-.12-.56-.1-1.14-.15-1.93-1.87,1.23-2.33,2.84-2.13,4.69.98.54,1.88,1.04,2.8,1.54-1.72,2.74-4.92,2.68-6.61.11-1.11-1.71-1.22-3.6-.78-5.53.24-1.05.6-2.06.94-3.23-1.37-.8-3.33-1.19-3.23-3.72,1.97-.49,3.43,1.38,5.33,1.19,5.22-2.38,10.56-1.69,15.93-.14-3.15-2.6-6.71-4.19-11.37-4.97-1.2.24-3.12.61-5.23,1.03.42.97.73,1.69,1.05,2.44-2.31.25-3.45-.72-4.34-3.52-1.85-.16-3.66-.51-5.46-.44-2.46.1-3.95,1.76-5.28,4.01h2.82c-1.02,2.04-2.38,2.72-4.05,2.21-2.06-.63-2.89-2.45-2.49-5.62-3.72.06-6.14,2.08-7.86,5.07-1.49,2.6-1.23,5.1.99,7.21q-.99,1.34-4.05.1c.52,3.75,2.53,6.52,5.38,8.68,1.56,1.18,3.22.37,4.69-.45,1.27-.71,1.89-2.34,1.61-3.83-.08-.4-.2-.8-.32-1.26-.59.2-1.12.38-1.63.56-1.56-1.71-1.08-3.42,1.59-5.71-2.37-2.95-4.73-.17-7.03.27-.17-2.08.65-3.16,2.9-4.14,2.66-1.15,6.02.09,8.73,3.2h3.79c.67,1.23,1.3,2.4,2.15,3.94-1.41-.4-2.34-.67-3.35-.96-.24,6.76-4.84,11.91-13.16,12.37-.13,2.13-.16,4.43-2.93,5.05-1.41.32-2.48-.29-3.18-1.44-.64-1.05-1.82-2.13-.28-3.61.62.39,1.22.78,1.97,1.26.1-.15.31-.33.35-.55.64-2.9-1.78-4.31-2.87-6.59-1.05,2.56-1.85,4.79-2.86,6.92-1.44,3.04-3.65,5.05-7.24,5.37-1.96.18-3.23-.6-4.18-2.07-1.05-1.63-1.94-3.35-.24-5.53.23,2.49,1.89,2.99,3.7,3.18,1.33.14,2.03-.41,2.59-1.56-1.85-.66-3.73-1.33-5.32-1.9-1.02-3.92.11-5.97,2.85-5.63-.14.7-.29,1.38-.49,2.37.67.06,1.34.3,1.88.14,1.85-.56,2.78-2.22,2.63-4.58-1.82-.07-3.55-.46-4.9-2.43,3.01-1.36,6.76-1.7,7.44-5.59-2.71.13-5.49.33-8.27.38-3.01.05-5.7-1.16-8.15-2.73C-.21,17.36-.64,14.52.87,11.18c-.21-.79-.44-1.64-.68-2.51,2-.39,3.88.82,4.35,2.69.06.24.03.5.06.75.45,3.71,1.87,4.89,6.1,4.84-1.88-2.25-3.94-4.47-1.48-7.33,1.04-1.22,2.39-1.12,5.16.25-.76.69-1.4,1.27-2.06,1.86,1.23,2.25,3.3,2.55,7.23.98-.24-1.25-.48-2.5-.72-3.76,1.13-1.1,1.62-2.83,3.8-2.11-.3.65-.56,1.22-.83,1.8.13.9,1.29,1.54,2.57,1.37,1.48-.19,2.95-.4,4.72-.64-.8-.47-1.53-.9-2.26-1.34.12-.29.24-.57.36-.86.53-.14,1.18-.55,1.57-.37,3.58,1.61,7.03.34,10.51-.33.65-.12,1.27-.38,1.92-.57,1.49-3.13,2.69-3.6,5.67-2.06-.52.45-.99.86-1.8,1.56,3.35.75,6.44,1.44,9.55,2.14.44-.67.82-1.28,1.32-2.05.56.29,1.22.41,1.5.79,2.48,3.43,6.22,5.2,9.62,7.41,1.95,1.27,4.06,2.3,5.96,3.64,3.71,2.63,7.84,3.41,12.27,3.24,1.39-.06,2.79,0,4.47,0Z"/>
  <path class="b" d="M237.93,38.34c-7.77-.2-12.51-5.57-12.95-12.13-.93.24-1.8.46-2.66.68.42-3.31,1.64-4.16,4.95-3.44,5.22-4.85,9.14-4.98,12.01-.34-.77,1.06-1.46.47-2.27-.03-2.14-1.31-3.26-1.1-5.02.9,1.61,1.27,2.9,2.72,2.23,5.25-.73-.09-1.42-.18-2.1-.26-.88,2.2-.56,3.96.96,5.09,1.85,1.38,4.25,1.35,5.96-.08,2.44-2.03,4.06-4.98,4.56-8.3-1.17.35-2.34.71-3.5,1.06-.18-.14-.35-.29-.53-.43,1.31-2.19,2.71-4.42,1.32-6.9-.8-1.43-1.66-2.99-2.91-3.96-1.43-1.12-3.32-1.66-5.36-2.62-.04,2.82.11,5.33-2.73,6.22-1.56.49-2.68-.29-3.83-1.82,1.02-.17,1.75-.29,2.48-.41-1.08-2.99-2.95-4.14-6-3.88-1.56.13-3.14.02-4.81.02-.16.86-.33,1.74-.53,2.81-.98.51-2.01,1.04-3.04,1.58-.12-.14-.24-.28-.36-.42.28-.7.57-1.39.97-2.38-2.6-.82-4.95-1.45-7.73-.84-3.79.84-6.74,3.03-9.81,5.23,2.01-.51,3.99-1.11,6.02-1.5,3.47-.67,6.85-.57,10.25.81,1.07.43,2.63-.33,3.96-.6.51-.1.98-.35,1.66-.6.42,2.63-1.53,3.06-2.95,3.92.37,1.46.84,2.88,1.07,4.34.43,2.81-.96,5.35-3.21,6.1-1.73.58-2.87.09-3.85-1.76.4-.23.8-.47,1.21-.68.37-.18.75-.33,1.08-.47.5-2.64-.09-3.99-2.6-5.56,1.08,2.48-.28,3.98-1.77,5.36-1.25,1.15-3.36,1.15-4.64.15-.68-.53-.73-.85-.4-2.5.68.21,1.34.41,1.99.61,1.31-3.38-1.57-5.66-6.29-5.14-.16,3.06-.28,3.24-2.59,3.55-.28-.63-.58-1.29-.82-1.84-2.75-1.65-5.46-.61-8.16-.31-2.23.25-4.47.47-6.71.63-1.07.07-1.96-.32-2.39-1.87.77-.31,1.52-.74,2.32-.9.81-.16,1.67-.08,2.5-.03,4.47.26,8.56-.68,12.31-3.28,3.28-2.28,6.81-4.2,10.11-6.45,1.84-1.25,3.43-2.85,5.14-4.29.37-.31.76-.59,1.28-1,.57.7,1.07,1.3,1.69,2.06,3.01-.7,6.1-1.41,9.46-2.18-.62-.66-.99-1.05-1.52-1.61.64-.3,1.11-.66,1.62-.74,1.79-.28,2.52.33,3.73,3.02,4.38,1.03,8.78,2.3,13.41.65.39,1.94-1.3,1.91-2.35,3.2,3.05-.63,5.8.94,8.51-.97-.34-.8-.6-1.43-.89-2.11,3.12-.17,4.2,2.22,2.77,5.75,3.5,1.64,5.82,1.42,7.7-.84-.57-.52-1.14-1.05-1.71-1.58,1.14-1.4,3.34-1.69,4.49-.63,1.68,1.54,1.04,4.36-1.62,7.11,3.91.79,5.85-.54,6.33-4.34.3-2.33,1.53-3.48,3.55-3.57.34,1.61.7,3.15.98,4.71.4,2.2-1.34,5.01-3.78,6.23-4.2,2.09-8.58,2.53-13.13,1.46-.64-.15-1.29-.31-2.23-.54.36,1.97,1.43,3.39,2.74,4.33,1.29.93,3.01,1.26,4.74,1.93-1.21,1.94-3.02,2.24-4.86,2.35.13,3.34,1.69,4.92,4.75,4.74v-2.54c1.85.17,2.84,1.34,2.84,3.25,0,2.26-1.86,3.41-6.01,3.63-.08,1.36.81,1.86,1.89,2.12,1.89.45,3.49-.38,4.9-2.46,1.4,3.05-.84,6.75-4.12,6.73-2.66-.02-4.92-.97-6.38-3.28-.89-1.4-1.7-2.87-2.35-4.39-.62-1.43-.98-2.97-1.45-4.46-2.46,1.6-3.85,4.84-2.99,7.26.7-.35,1.39-.7,2.11-1.06.55,1.94-.42,3.95-2.04,4.47-1.23.39-2.98-.12-3.5-1.27-.53-1.18-.76-2.49-1.11-3.72Z"/>
  <path class="b" d="M127.53,33.85c.89,1.02,1.89,2.14,2.86,3.27.09.11.06.32.13.74-.5.52-1.1,1.15-1.76,1.84-.81-.7-1.5-1.29-2.28-1.96-2.16,1.52.6,2.53.21,4.04-.41.37-1,.92-1.82,1.68-1.36-1.49-2.61-2.87-3.9-4.28-1.07.69-1.97,1.26-3.08,1.96-.63-.36-1.31-.74-2.04-1.16.79-4.8,5.66-5.94,7.89-9.83.04-.25.14-.97.27-1.87.84-.15,1.64-.29,2.72-.47,1.3-1.39,2.77-2.95,4.27-4.54-1.85-2.44-3.67-4.48-6.66-5.15-.76-.17-1.37-1.04-2.1-1.63-2.2.2-4.59.43-6.71.62-3.85-2.85-4.76-6.44-2.92-10.54.23-.52.49-1.07.56-1.62.18-1.47.95-2.22,2.42-2.37.56-.06,1.15-.25,1.63-.55,2.76-1.72,5.6-1.49,7.98.36,2.37,1.84,2.62,4.69,2.06,7.54-.14.73-.39,1.43-.45,1.63,1.14,1.7,1.98,3.08,2.94,4.37,1.11,1.49,2.32,2.91,3.66,4.58,2.59-2.17,4.88-4,5.94-6.99.27-.76,1.05-1.34,1.71-2.15-.17-1.24-.61-2.79-.57-4.33.14-5.4,5.16-8.21,9.93-5.67.22.12.41.38.63.39,4.4.3,4.21,4.05,4.96,6.85.87,3.22-.57,5.83-3.48,8-2.18-.19-4.56-.4-6.48-.57-1.23.68-2.13,1.31-3.12,1.7-2.42.94-3.86,2.1-6.44,5.58,1.55,1.64,3.12,3.32,4.7,4.99.88.14,1.68.27,2.6.41.18.83.35,1.61.48,2.21,2.59,2.71,5.07,5.28,7.48,7.9.29.31.23.93.37,1.59-.57.43-1.14.87-1.84,1.4-1.06-.69-2.02-1.31-3.26-2.11-1.34,1.42-2.73,2.88-4.25,4.49-.74-.7-1.32-1.24-1.83-1.72.63-1.32,1.19-2.45,1.69-3.61.05-.12-.27-.39-.49-.7-1.01.79-1.9,1.48-2.72,2.12-2.46-1.29-2.62-1.96-1.04-3.73.39-.44.78-.87,1.18-1.3.33-.36.67-.72.84-.9-.63-1.23-1.18-2.33-1.74-3.43.12-.08.24-.16.35-.23-1.73-1.54-3.47-3.09-5.35-4.76-1.64,1.44-3.19,2.8-4.75,4.17.1.06.19.12.29.18-.54,1.12-1.08,2.23-1.72,3.57ZM149.8,4.5c-1.62-1.19-3.1-1.58-4.74-.45-1.59,1.1-1.85,2.57-1.54,4.36.42,2.37,2.64,4.75,5.01,5.17,2.82.5,4.68-1.11,4.42-3.79-.17-1.75-1.37-2.52-2.8-2.93-.15-.34-.32-.56-.34-.79-.04-.49-.01-.98-.01-1.56ZM118.03,7.18c-.45.26-.65.4-.87.5-1.83.86-2.51,2.18-2.03,3.92.56,2.01,1.55,2.66,3.66,2.56,2.13-.1,3.43-1.42,4.68-2.9,1.34-1.58,1.5-4.58.3-5.95-1.55-1.76-2.99-1.86-5.5-.35-.07.71-.15,1.43-.23,2.22Z"/>
  <path class="b" d="M29.13,2.6V.49c1.05-.55,2.13-.79,2.78.1.43.59.25,1.61.32,2.19-1.39,1.26-2.24.71-3.1-.18Z"/>
  <path class="b" d="M238.66.04c.27,3.12-.04,3.4-2.76,2.89.06-.71-.14-1.73.26-2.15.48-.5,1.5-.48,2.5-.74Z"/>
  <path class="b" d="M14.69,4.21h3.01c-.3.91-.35,1.77-.81,2.21-.29.28-1.4.18-1.74-.16-.38-.38-.3-1.21-.46-2.05Z"/>
  <path class="b" d="M49.64,35.86c-.96-.32-1.92-.65-3.34-1.13,1.23-.82,1.94-1.29,2.97-1.98.42.97.71,1.67,1.01,2.37-.21.24-.43.49-.64.73Z"/>
  <path class="b" d="M7.9,28.92c-.65-.45-1.29-.91-1.94-1.36.05-.25.1-.5.14-.75.67-.16,1.55-.66,1.96-.4.45.28.47,1.25.68,1.92-.28.2-.56.4-.84.59Z"/>
  <path class="b" d="M251.34,6.77c-.26-.65-.52-1.31-.78-1.96.66-.26,1.33-.52,1.99-.79.16.17.33.33.49.5-.24.72-.48,1.45-.71,2.17-.33.02-.66.05-.99.07Z"/>
  <path class="b" d="M220.9,34.91c-.63.3-1.26.6-2.28,1.09-.23-.91-.4-1.57-.56-2.24.16-.15.31-.3.47-.45.82.3,1.63.6,2.45.89-.02.23-.05.46-.07.69Z"/>
  <path class="b" d="M259.54,26.79c.9-.48,1.71-.63,1.9.56.06.34-.58,1.13-.91,1.13-1.15.02-1.23-.78-.99-1.69Z"/>
  <path class="b" d="M77.16,25.51q1.04,1.09.25,2.18c-1.26-.48-1.47-1.11-.25-2.18Z"/>
  <path class="b" d="M191.8,26.68c-.87,1.28-1.51,1.17-2.19-.02.68-1.19,1.31-1.33,2.19.02Z"/>
</svg>